<?xml version="1.0" standalone="no"?>
<!DOCTYPE svg PUBLIC "-//W3C//DTD SVG 20010904//EN"
 "http://www.w3.org/TR/2001/REC-SVG-20010904/DTD/svg10.dtd">
<svg version="1.0" xmlns="http://www.w3.org/2000/svg"
 width="120px" height="120px" viewBox="0 0 1080.000000 1080.000000"
 preserveAspectRatio="xMidYMid meet">

<g transform="translate(0.000000,1080.000000) scale(0.100000,-0.100000)"
fill="#f9f9f9" stroke="none">
<path d="M1737 8479 c-231 -234 -353 -461 -424 -792 -14 -63 -18 -128 -18
-277 0 -220 8 -275 66 -454 155 -477 540 -823 1024 -922 95 -19 195 -21 605
-13 259 5 432 -19 655 -91 175 -56 195 -72 112 -85 -51 -9 -294 -86 -397 -127
-119 -47 -280 -121 -280 -128 0 -4 35 -10 78 -14 141 -11 256 -50 383 -128
137 -83 378 -188 434 -188 8 0 23 -12 35 -27 66 -84 89 -101 202 -146 318
-125 474 -190 484 -200 7 -7 25 -37 41 -67 59 -108 318 -614 331 -644 8 -20
-68 51 -215 202 l-228 234 -218 52 c-120 29 -219 50 -221 47 -2 -3 -6 -68 -7
-145 l-4 -138 66 -77 c240 -279 389 -603 449 -979 12 -72 13 -74 110 -190 55
-64 97 -118 95 -120 -2 -3 -55 37 -117 87 -62 50 -115 91 -118 91 -3 0 -5 -42
-6 -93 -1 -71 -7 -110 -28 -170 -14 -42 -26 -95 -26 -115 0 -45 24 -131 52
-186 25 -48 99 -129 154 -167 45 -31 177 -79 217 -79 13 0 55 -20 93 -45 65
-43 149 -80 205 -92 32 -6 161 46 231 94 35 25 73 40 122 50 204 41 351 186
386 382 12 63 11 71 -15 141 -21 57 -29 100 -33 178 -2 56 -7 102 -9 102 -4 0
-53 -39 -238 -189 -19 -15 -19 -15 -5 4 8 11 37 47 65 80 135 159 142 170 149
234 11 99 71 319 121 441 81 201 191 383 325 539 l73 84 -6 140 c-3 76 -7 141
-9 142 -2 2 -102 -21 -223 -51 l-220 -54 -133 -138 c-73 -75 -171 -179 -219
-229 -47 -51 -90 -93 -95 -93 -4 0 36 84 89 188 54 103 141 269 193 370 l95
184 305 122 304 123 46 56 c40 50 52 58 115 78 121 37 236 88 365 164 164 96
311 145 443 145 20 0 37 4 37 9 0 25 -388 179 -594 235 -71 20 -131 38 -133
40 -14 14 220 88 379 121 201 41 363 51 586 35 338 -23 535 6 771 116 519 242
837 811 782 1397 -31 332 -142 599 -356 857 -65 77 -205 210 -221 210 -7 0 -5
-3 74 -106 69 -91 152 -255 191 -376 83 -261 82 -574 -1 -823 -114 -341 -396
-574 -757 -626 -93 -13 -340 -8 -381 9 -18 7 -33 27 -49 67 l-24 57 -121 -6
c-182 -10 -922 -26 -1251 -27 l-290 -1 -89 -101 c-114 -130 -230 -260 -279
-312 l-38 -40 17 35 c9 19 52 99 95 177 44 78 79 146 79 152 0 5 -14 8 -32 5
-18 -3 -162 -22 -319 -44 l-287 -39 -318 44 c-175 24 -320 42 -322 40 -2 -2
40 -83 93 -180 53 -97 95 -178 93 -180 -2 -2 -93 97 -202 220 l-199 225 -276
0 c-317 0 -1102 16 -1269 26 l-112 6 -25 -55 c-13 -31 -35 -62 -47 -69 -17 -9
-75 -13 -213 -13 -167 0 -200 3 -275 23 -383 104 -635 391 -701 797 -18 115
-16 360 5 469 43 222 136 423 274 594 71 87 18 51 -101 -69z"/>
<path d="M7860 2270 c0 -16 7 -20 30 -20 l29 0 3 -97 c3 -90 5 -98 23 -98 18
0 20 8 23 98 l3 97 29 0 c23 0 30 4 30 20 0 18 -7 20 -85 20 -78 0 -85 -2 -85
-20z"/>
<path d="M8064 2277 c-2 -7 -3 -60 -2 -118 2 -84 6 -104 18 -104 11 0 16 17
20 73 l5 72 28 -50 c16 -27 32 -50 36 -50 4 0 22 26 39 58 l31 57 1 -82 c0
-76 2 -83 20 -83 19 0 20 7 20 120 0 111 -1 120 -19 120 -13 0 -29 -20 -52
-65 -38 -73 -38 -73 -85 18 -24 46 -49 61 -60 34z"/>
<path d="M3092 2153 l3 -78 35 -5 35 -5 3 -180 c4 -221 3 -225 -44 -225 l-35
0 3 -77 3 -78 255 0 c272 0 299 4 373 52 67 43 96 148 63 227 -7 18 -30 46
-50 63 l-37 30 40 39 c30 31 41 51 46 86 14 93 -17 153 -102 194 l-58 29 -268
3 -268 3 3 -78z m432 -94 c60 -47 15 -119 -75 -119 l-49 0 0 70 0 70 49 0 c34
0 56 -6 75 -21z m16 -269 c12 -12 20 -33 20 -55 0 -54 -28 -75 -100 -75 l-60
0 0 75 0 75 60 0 c47 0 64 -4 80 -20z"/>
<path d="M4705 2205 c-60 -7 -116 -14 -123 -14 -9 -1 -12 -18 -10 -63 l3 -63
33 -3 32 -3 -2 -212 -3 -212 -33 -3 -33 -3 3 -62 3 -62 178 -3 177 -2 0 64 0
65 -32 3 -33 3 -5 290 c-5 281 -6 290 -25 291 -11 1 -69 -4 -130 -11z"/>
<path d="M5098 2205 c-64 -7 -120 -15 -125 -18 -5 -3 -6 -32 -3 -64 5 -57 6
-58 38 -61 l32 -3 0 -209 c0 -222 0 -220 -50 -220 -15 0 -19 -10 -22 -61 -2
-37 1 -63 7 -66 6 -2 87 -2 180 -1 l170 3 3 62 3 62 -33 3 -33 3 -5 290 c-3
160 -7 291 -8 293 -3 3 -17 2 -154 -13z"/>
<path d="M5478 2207 l-108 -9 0 -64 0 -64 30 0 30 0 -2 -217 -3 -218 -27 -3
c-27 -3 -28 -5 -28 -68 l0 -64 160 0 160 0 0 64 c0 56 -3 66 -20 71 -18 6 -20
15 -20 105 0 91 2 100 22 114 34 24 67 20 78 -10 6 -14 10 -97 10 -185 l0
-160 138 3 137 3 3 62 c3 61 3 62 -25 65 l-28 3 -6 126 c-7 141 -23 189 -73
220 -44 27 -148 26 -201 -1 -22 -11 -43 -20 -47 -20 -4 0 -8 59 -8 130 l0 130
-32 -2 c-18 0 -81 -5 -140 -11z"/>
<path d="M6314 1999 c-148 -19 -235 -127 -221 -277 8 -81 41 -139 102 -180
115 -76 319 -57 398 37 91 108 70 299 -40 373 -64 43 -147 60 -239 47z m102
-154 c22 -34 22 -157 -1 -191 -22 -34 -74 -30 -93 6 -17 33 -12 171 7 193 21
26 68 21 87 -8z"/>
<path d="M4005 1995 c-5 -2 -41 -6 -78 -10 l-68 -7 3 -61 c3 -59 4 -62 29 -65
l27 -3 4 -117 c4 -134 22 -183 78 -216 47 -27 132 -27 191 2 56 27 59 27 59 2
0 -20 5 -20 138 -18 l137 3 3 63 c3 56 1 62 -17 62 -51 0 -51 0 -51 192 l0
181 -100 -7 c-154 -11 -154 -12 -158 -78 -3 -49 0 -57 18 -63 18 -6 20 -14 20
-104 0 -62 -4 -101 -12 -109 -19 -19 -66 -15 -78 7 -6 11 -10 90 -10 185 l0
166 -62 -1 c-35 0 -67 -2 -73 -4z"/>
<path d="M6822 1987 c-114 -11 -117 -13 -110 -93 3 -34 6 -39 33 -44 l30 -5 0
-105 0 -105 -33 -3 -33 -3 3 -62 3 -62 195 0 195 0 0 60 0 60 -50 5 -50 5 -3
77 c-3 73 -2 78 23 94 19 12 40 15 80 12 l55 -5 0 94 c0 87 -1 93 -20 93 -32
0 -83 -24 -110 -53 -30 -31 -40 -26 -40 19 0 39 10 38 -168 21z"/>
<path d="M7315 1986 l-90 -11 -3 -62 -3 -62 33 -3 33 -3 0 -105 0 -105 -33 -3
-33 -3 3 -62 3 -62 160 0 160 0 3 61 c3 55 1 62 -18 67 -18 5 -20 13 -20 105
0 103 4 113 45 126 45 13 50 -2 55 -186 l5 -173 140 0 140 0 0 60 c0 59 -1 60
-30 65 l-30 5 -5 135 c-6 141 -11 159 -55 200 -22 21 -38 25 -98 28 -62 3 -79
0 -120 -22 -26 -14 -50 -26 -53 -26 -2 0 -4 11 -4 25 0 23 -3 25 -47 24 -27
-1 -88 -7 -138 -13z"/>
<path d="M4659 1149 c-6 -3 -9 -26 -7 -50 2 -37 7 -45 26 -47 21 -3 22 -7 22
-115 0 -135 17 -181 76 -218 33 -20 52 -24 121 -24 88 0 114 11 157 69 18 24
21 45 24 156 3 123 4 129 25 132 19 3 22 11 25 51 l3 48 -93 -3 -93 -3 0 -45
c0 -39 3 -45 23 -48 21 -3 22 -7 22 -100 0 -122 -11 -146 -66 -150 -65 -5 -78
18 -82 143 -4 102 -3 103 20 107 20 3 23 9 26 51 l3 47 -83 1 c-46 0 -96 2
-111 3 -15 1 -32 -1 -38 -5z"/>
<path d="M5241 1142 c-53 -27 -75 -64 -75 -126 0 -91 37 -128 161 -157 83 -20
97 -28 91 -54 -10 -51 -99 -43 -133 12 -19 31 -23 33 -70 30 l-50 -2 0 -70 0
-70 35 -3 c23 -2 38 2 46 12 10 15 15 14 55 -4 130 -58 269 8 269 129 0 87
-53 136 -171 160 -72 15 -98 33 -83 58 24 39 114 21 129 -27 5 -17 15 -20 61
-20 l55 0 -3 72 c-3 71 -3 71 -32 73 -17 0 -36 -7 -46 -18 -17 -18 -19 -18
-51 2 -44 27 -139 28 -188 3z"/>
<path d="M5663 1144 c-2 -7 -3 -29 -1 -50 2 -33 7 -40 29 -44 l26 -5 -40 -122
c-32 -98 -44 -123 -59 -123 -10 0 -18 -3 -19 -7 0 -5 -2 -19 -4 -33 -7 -56 -1
-60 96 -60 l89 0 0 46 c0 37 -4 47 -20 51 -11 3 -20 14 -20 24 0 17 8 19 64
19 49 0 65 -4 70 -16 9 -22 8 -22 -16 -26 -20 -3 -23 -9 -23 -48 l0 -45 125 0
125 0 0 45 c0 38 -3 45 -21 48 -16 2 -26 23 -53 115 -19 62 -42 140 -53 174
l-18 62 -137 3 c-95 2 -137 0 -140 -8z m166 -148 c17 -70 16 -76 -25 -76 -29
0 -35 3 -30 16 4 9 11 36 17 60 6 24 15 44 19 44 4 0 13 -20 19 -44z"/>
</g>
</svg>
