<?xml version="1.0" standalone="no"?>
<!DOCTYPE svg PUBLIC "-//W3C//DTD SVG 20010904//EN"
 "http://www.w3.org/TR/2001/REC-SVG-20010904/DTD/svg10.dtd">
<svg version="1.0" xmlns="http://www.w3.org/2000/svg"
 width="120px" height="120px" viewBox="0 0 1080.000000 1080.000000"
 preserveAspectRatio="xMidYMid meet">

<g transform="translate(0.000000,1080.000000) scale(0.100000,-0.100000)"
fill="#f9f9f9" stroke="none">
<path d="M0 5400 l0 -5400 5400 0 5400 0 0 5400 0 5400 -5400 0 -5400 0 0
-5400z m5855 2666 c781 -89 1394 -296 1955 -661 69 -45 148 -99 176 -121 28
-21 68 -52 90 -69 94 -72 295 -258 392 -365 126 -137 293 -359 379 -502 34
-57 65 -110 68 -119 5 -12 -10 -20 -67 -38 -158 -48 -576 -171 -581 -171 -3 0
-11 16 -18 37 -80 245 -309 574 -564 813 -44 41 -82 77 -85 80 -13 16 -170
136 -253 193 -479 333 -1087 545 -1747 612 -200 20 -608 20 -811 0 -310 -31
-586 -87 -859 -176 -984 -321 -1685 -985 -1874 -1777 -14 -56 -28 -134 -32
-172 -4 -39 -11 -73 -15 -76 -22 -13 3 322 36 476 69 332 241 681 465 945 100
118 300 308 420 400 533 406 1259 658 2050 709 133 9 752 -4 875 -18z m-210
-461 c221 -28 379 -55 393 -69 3 -4 -123 -136 -280 -293 l-286 -286 -74 11
c-112 18 -413 33 -505 26 -61 -5 -83 -4 -83 5 0 7 49 130 108 274 60 144 117
284 128 311 l19 49 230 -7 c127 -3 284 -12 350 -21z m-804 -18 c-5 -12 -60
-146 -124 -297 -63 -151 -117 -284 -121 -296 -5 -18 -22 -23 -114 -38 -59 -10
-163 -31 -231 -47 -68 -16 -125 -29 -127 -29 -2 0 -3 136 -2 303 l3 302 130
33 c71 18 156 37 190 43 33 5 87 14 120 20 86 15 269 36 277 32 4 -2 3 -14 -1
-26z m1534 -138 c204 -62 508 -201 712 -325 158 -96 340 -235 321 -245 -8 -4
-118 -51 -244 -103 -126 -51 -301 -124 -389 -161 -88 -37 -167 -69 -176 -72
-8 -2 -51 18 -95 45 -211 131 -392 206 -773 321 -22 7 -2 29 258 289 200 201
288 281 299 278 9 -3 49 -15 87 -27z m-2445 -332 l0 -304 -72 -28 c-40 -16
-115 -48 -167 -72 -52 -24 -95 -42 -97 -41 -12 12 -203 495 -200 505 9 22 484
241 529 243 4 0 7 -137 7 -303z m-609 -291 c55 -131 99 -243 99 -250 0 -7 -32
-35 -72 -62 -40 -27 -96 -68 -124 -91 -29 -24 -56 -43 -61 -43 -4 0 -88 80
-186 178 l-179 179 79 72 c43 40 121 105 173 144 52 38 109 81 125 93 17 13
34 22 39 21 5 -2 53 -110 107 -241z m2024 -41 c333 -43 619 -125 892 -255 298
-142 524 -302 749 -527 104 -104 284 -316 284 -335 0 -12 -7 -11 -162 27 -79
19 -197 46 -263 60 -70 15 -122 31 -127 39 -5 8 -35 51 -69 96 -221 299 -606
533 -1069 650 -886 225 -1869 0 -2375 -543 -158 -169 -244 -331 -291 -552
l-13 -60 4 105 c9 262 134 522 354 738 329 322 827 521 1427 572 150 12 514 4
659 -15z m2297 -107 c73 -79 191 -231 252 -326 53 -82 151 -273 162 -316 6
-24 4 -28 -12 -23 -11 3 -48 12 -84 21 -36 8 -171 40 -300 71 -129 30 -309 73
-400 94 -396 93 -350 78 -421 142 -35 31 -61 60 -57 64 4 4 163 72 355 151
191 80 368 153 393 164 25 11 47 19 49 20 3 0 31 -28 63 -62z m-4794 -261
l174 -174 -75 -85 c-41 -48 -89 -107 -106 -132 l-31 -45 -98 41 c-53 22 -144
60 -202 83 -58 24 -109 50 -114 58 -10 15 43 114 129 242 49 74 136 185 144
185 3 0 84 -78 179 -173z m7111 -79 c-34 -68 -98 -146 -158 -192 -109 -84
-162 -103 -531 -191 -107 -26 -384 -93 -615 -150 -231 -57 -488 -120 -571
-140 l-152 -36 -158 35 c-88 20 -195 42 -239 49 -44 8 -73 17 -65 20 24 9 243
67 590 156 107 27 303 77 435 111 132 35 341 88 465 120 481 124 750 194 870
225 69 18 131 33 138 34 8 1 6 -12 -9 -41z m-139 -334 c0 -21 -78 -129 -128
-178 -118 -116 -162 -135 -477 -211 -126 -31 -322 -79 -435 -106 l-204 -50
-126 35 c-69 19 -162 45 -207 56 -46 12 -83 25 -83 29 0 3 109 34 243 68 364
94 748 194 1082 282 295 78 335 87 335 75z m-7322 -101 c103 -42 192 -81 199
-86 9 -7 7 -20 -11 -55 -12 -26 -33 -72 -45 -102 l-21 -55 -183 -23 c-100 -12
-193 -25 -205 -29 -24 -6 -24 -5 -17 53 14 114 78 374 92 374 2 0 88 -35 191
-77z m3667 -198 c355 -42 810 -136 1213 -251 96 -27 775 -232 1007 -304 17 -5
77 -19 135 -31 92 -18 127 -20 285 -16 171 5 243 13 643 72 94 14 195 25 222
25 87 0 81 -23 -54 -204 -165 -219 -168 -236 -71 -351 94 -112 133 -220 116
-323 -17 -104 -76 -233 -165 -357 -44 -60 -47 -54 -6 11 61 97 65 218 11 328
-61 125 -186 232 -401 344 -149 78 -265 124 -540 212 -124 40 -450 146 -725
235 -621 203 -691 226 -840 269 -267 78 -490 129 -717 163 -158 24 -597 24
-753 1 -376 -58 -800 -175 -1360 -376 -147 -53 -456 -172 -475 -183 -9 -5 16
-9 69 -9 338 -1 1103 -83 1696 -182 244 -41 256 -42 485 -42 254 0 353 11 621
64 162 33 415 103 558 156 52 19 96 32 98 30 6 -6 -80 -73 -165 -130 -91 -60
-283 -156 -403 -200 -190 -70 -372 -108 -602 -126 -209 -17 -323 -6 -1172 115
-809 114 -1072 139 -1505 139 -267 0 -363 -4 -540 -22 -655 -69 -925 -131
-1225 -285 -110 -56 -291 -175 -399 -262 -38 -30 -71 -53 -74 -50 -8 8 43 96
83 144 165 196 462 359 868 476 264 75 587 134 862 156 104 9 154 17 195 34
1011 421 1816 660 2455 729 164 18 425 19 570 1z m3463 -131 c-100 -166 -295
-284 -499 -301 -65 -6 -73 -4 -151 34 -46 22 -118 53 -161 68 -42 15 -76 29
-75 31 2 1 75 21 163 44 88 23 279 73 425 112 323 86 324 86 328 76 2 -5 -11
-34 -30 -64z m-730 -1036 c74 -28 126 -77 154 -146 21 -55 23 -72 26 -394 3
-328 3 -337 -18 -387 -26 -59 -82 -113 -148 -144 -38 -17 -66 -21 -152 -22
-95 0 -110 3 -162 28 -65 32 -123 93 -139 146 -17 60 -22 146 -10 169 11 21
19 22 126 22 128 0 145 -8 145 -65 0 -50 9 -65 40 -65 38 0 52 37 48 126 -3
76 3 73 -83 53 -113 -27 -206 19 -260 126 -28 56 -30 68 -33 200 -5 157 4 202
48 263 78 108 264 148 418 90z m-742 1 c32 -12 77 -39 100 -61 69 -64 75 -91
86 -423 15 -401 1 -476 -100 -550 -101 -73 -275 -87 -381 -30 -102 56 -155
149 -149 262 l3 58 127 3 127 3 6 -38 c10 -63 22 -83 49 -83 36 0 46 27 46
121 0 73 -2 81 -17 76 -105 -30 -111 -31 -166 -18 -114 25 -169 100 -189 253
-24 191 11 330 99 391 84 58 255 75 359 36z m-2749 -281 c90 -30 154 -90 177
-167 19 -63 20 -95 6 -122 -10 -17 -22 -19 -135 -19 l-125 0 0 30 c0 30 -30
70 -52 70 -6 0 -20 -7 -30 -17 -16 -14 -18 -34 -18 -174 0 -132 3 -160 16
-174 28 -28 57 -14 82 38 l22 47 115 0 c134 0 142 -5 130 -93 -16 -112 -79
-185 -194 -223 -72 -23 -216 -15 -290 17 -61 26 -122 91 -139 147 -17 57 -15
435 2 485 31 84 95 137 201 163 78 19 157 17 232 -8z m736 3 c89 -31 145 -75
173 -136 24 -52 24 -54 22 -361 l-3 -309 -123 -3 c-117 -2 -124 -2 -129 18 -7
26 -27 25 -64 -2 -43 -32 -165 -32 -225 -1 -81 43 -114 106 -114 218 0 114 35
183 112 223 37 19 68 25 160 30 l113 7 3 32 c5 54 -50 94 -80 57 -49 -59 -42
-57 -162 -50 -61 4 -117 12 -124 18 -22 19 3 108 46 165 71 95 260 140 395 94z
m1309 -14 c89 -40 138 -106 154 -204 8 -55 -8 -63 -125 -63 -104 0 -121 5
-121 33 0 25 -27 57 -50 57 -40 0 -55 -63 -22 -93 9 -8 60 -32 112 -53 52 -20
114 -50 137 -65 112 -77 117 -259 9 -345 -85 -68 -251 -94 -358 -56 -124 44
-181 109 -182 207 l-1 50 118 3 118 3 15 -36 c17 -40 33 -50 69 -41 20 5 25
13 25 37 0 26 -6 33 -52 54 -29 14 -58 25 -65 25 -28 0 -121 50 -154 83 -53
52 -73 110 -67 200 7 114 61 180 177 219 77 25 190 19 263 -15z m-749 13 c10
0 17 -8 17 -20 0 -26 3 -25 48 5 27 19 50 25 88 25 73 0 79 -10 64 -112 -6
-46 -16 -100 -21 -120 -10 -38 -10 -38 -59 -38 -41 0 -56 -5 -82 -29 l-33 -29
-5 -244 -5 -243 -122 -3 c-115 -2 -123 -1 -133 18 -16 30 -8 779 8 789 6 4 57
5 114 4 57 -2 111 -3 121 -3z m-2063 -405 l0 -125 -1762 1 c-1846 2 -1846 2
-1298 38 96 6 236 16 310 21 138 10 457 32 725 50 83 6 211 15 285 20 74 5
205 14 290 20 182 12 806 55 1035 71 88 6 201 14 250 19 50 4 107 8 128 9 l37
1 0 -125z"/>
<path d="M8724 4326 c-16 -12 -20 -29 -22 -111 -4 -106 0 -136 24 -159 21 -21
40 -20 64 4 18 18 20 33 20 130 0 99 -2 111 -22 130 -26 24 -38 25 -64 6z"/>
<path d="M7991 4321 c-27 -27 -35 -79 -27 -169 8 -104 37 -134 87 -93 20 16
23 28 26 107 3 97 -9 149 -37 164 -25 13 -27 13 -49 -9z"/>
<path d="M5972 3747 c-6 -6 -13 -24 -17 -39 -5 -21 -1 -33 19 -52 31 -32 37
-32 75 0 25 21 31 33 31 65 l0 39 -49 0 c-27 0 -53 -6 -59 -13z"/>
</g>
</svg>
