<?xml version="1.0" standalone="no"?>
<!DOCTYPE svg PUBLIC "-//W3C//DTD SVG 20010904//EN"
 "http://www.w3.org/TR/2001/REC-SVG-20010904/DTD/svg10.dtd">
<svg version="1.0" xmlns="http://www.w3.org/2000/svg"
 width="120px" height="120px" viewBox="0 0 248.000000 100.000000"
 preserveAspectRatio="xMidYMid meet">

<g transform="translate(0.000000,100.000000) scale(0.100000,-0.100000)"
fill="#f9f9f9" stroke="none">
<path d="M1045 994 c-171 -19 -282 -42 -510 -104 -44 -12 -104 -28 -133 -35
-29 -7 -55 -15 -58 -17 -5 -6 242 1 272 7 13 3 21 12 20 21 -1 21 40 36 182
66 93 20 136 23 332 23 l225 0 94 -33 c52 -18 102 -31 110 -29 14 3 14 5 1 10
-208 78 -292 98 -417 96 -48 -1 -101 -4 -118 -5z"/>
<path d="M510 814 c-14 -2 -90 -14 -168 -25 -154 -22 -197 -33 -187 -49 4 -6
10 -8 14 -6 4 3 48 10 97 16 135 17 305 15 419 -6 138 -25 363 -23 630 6 151
16 277 23 450 24 324 1 463 -17 624 -84 84 -34 91 -35 91 -16 0 20 -64 71
-130 104 l-55 27 -725 0 c-399 0 -795 3 -880 7 -85 4 -166 5 -180 2z"/>
<path d="M454 320 c10 -54 30 -69 100 -72 l61 -3 5 -107 c4 -92 8 -109 25
-122 11 -9 30 -16 43 -16 22 0 22 1 22 149 0 194 4 189 -149 198 l-114 6 7
-33z"/>
<path d="M700 343 c0 -6 7 -16 15 -23 8 -7 15 -25 15 -41 0 -24 4 -29 25 -29
25 0 25 -1 25 -92 0 -112 12 -142 58 -146 l32 -3 0 149 c0 132 -2 151 -19 166
-21 19 -151 35 -151 19z"/>
<path d="M933 338 c-29 -14 -33 -34 -33 -165 0 -105 1 -113 26 -142 15 -19 35
-31 49 -31 21 0 24 5 27 43 l3 42 45 0 c45 0 45 0 48 -37 3 -38 4 -38 48 -38
l44 0 0 63 c0 90 -10 101 -107 107 l-78 5 0 30 c0 29 2 30 45 30 39 0 45 -3
48 -22 3 -18 10 -23 32 -23 16 0 35 -7 44 -15 8 -8 16 -15 18 -15 2 0 1 32 -2
71 -7 91 -17 99 -126 99 -45 0 -88 2 -96 4 -7 3 -23 0 -35 -6z"/>
<path d="M1220 326 c0 -13 9 -35 21 -50 20 -25 24 -26 125 -26 l104 0 0 50 0
50 -125 0 c-125 0 -125 0 -125 -24z"/>
<path d="M1500 205 c0 -174 7 -195 62 -195 l38 0 0 139 c0 155 -6 173 -67 190
l-33 10 0 -144z"/>
<path d="M1670 339 c-13 -6 -28 -15 -32 -22 -4 -7 -8 -71 -8 -143 0 -124 1
-132 23 -152 13 -12 33 -22 45 -22 19 0 22 6 22 40 l0 40 50 0 50 0 0 -35 c0
-35 0 -35 45 -35 l45 0 0 69 c0 90 -13 101 -117 101 l-73 0 0 35 0 35 50 0
c47 0 50 -2 50 -25 0 -21 5 -25 28 -25 15 0 37 -6 48 -14 19 -14 20 -13 16 52
-2 37 -9 73 -14 79 -24 30 -172 44 -228 22z"/>
<path d="M450 151 c0 -106 1 -110 26 -130 15 -12 37 -21 50 -21 24 0 24 1 24
115 l0 115 -28 0 c-15 0 -38 7 -50 16 l-22 15 0 -110z"/>
<path d="M1220 163 c0 -118 21 -162 78 -163 21 0 22 2 22 110 0 83 -3 110 -13
110 -7 0 -29 9 -50 19 l-37 19 0 -95z"/>
<path d="M1340 175 l0 -45 65 0 65 0 0 45 0 45 -65 0 -65 0 0 -45z"/>
</g>
</svg>
