<?xml version="1.0" standalone="no"?>
<!DOCTYPE svg PUBLIC "-//W3C//DTD SVG 20010904//EN"
 "http://www.w3.org/TR/2001/REC-SVG-20010904/DTD/svg10.dtd">
<svg version="1.0" xmlns="http://www.w3.org/2000/svg"
 width="120px" height="120px" viewBox="0 0 300.000000 161.000000"
 preserveAspectRatio="xMidYMid meet">

<g transform="translate(0.000000,161.000000) scale(0.100000,-0.100000)"
fill="#f9f9f9" stroke="none">
<path d="M1450 1507 c0 -2 25 -21 56 -41 87 -58 142 -113 181 -184 46 -82 57
-184 27 -248 -17 -37 -180 -214 -196 -214 -5 0 -8 11 -8 25 0 19 8 28 34 39
51 21 112 90 131 147 22 64 22 153 2 201 -36 86 -159 187 -283 234 -85 32 -96
31 -84 -2 19 -49 11 -129 -21 -216 -46 -126 -39 -209 26 -294 29 -38 85 -75
129 -83 28 -6 31 -10 32 -46 1 -22 0 -43 -2 -47 -9 -14 -131 50 -180 95 -64
58 -94 128 -94 217 0 51 29 233 47 295 3 11 3 17 -1 14 -3 -3 -19 -50 -36
-105 -37 -120 -43 -250 -15 -335 26 -78 91 -138 194 -180 l83 -34 -5 -47 c-4
-27 -3 -48 0 -48 3 0 38 31 77 68 39 37 107 95 151 129 106 80 181 161 210
225 36 82 39 110 3 39 -43 -86 -119 -166 -231 -242 -50 -35 -109 -79 -129 -97
-31 -28 -38 -31 -37 -16 0 11 30 44 66 74 224 189 240 379 45 561 -56 53 -172
131 -172 116z m69 -305 c39 -21 71 -73 71 -115 0 -34 -25 -84 -54 -109 -42
-35 -52 -10 -11 28 32 29 32 58 0 89 -30 31 -82 33 -119 4 -46 -36 -31 -87 34
-113 44 -17 46 -42 3 -31 -60 15 -103 70 -103 132 0 62 66 133 125 133 11 0
36 -8 54 -18z"/>
<path d="M477 654 c-14 -15 -6 -46 13 -51 19 -5 20 -14 20 -143 0 -129 -1
-138 -20 -143 -12 -3 -20 -14 -20 -26 0 -19 6 -21 70 -21 64 0 70 2 70 21 0
12 -8 23 -20 26 -19 5 -20 14 -20 143 0 131 1 138 21 143 15 4 20 12 17 29 -3
21 -9 23 -63 26 -34 2 -64 0 -68 -4z"/>
<path d="M974 653 c-12 -2 -34 -18 -50 -34 -28 -30 -29 -33 -29 -137 0 -167
37 -212 173 -212 l72 0 0 30 0 30 -64 0 c-98 0 -110 14 -114 134 -3 66 0 101
8 111 18 21 120 21 120 0 0 -9 9 -15 25 -15 23 0 25 3 25 50 l0 50 -72 -1
c-40 -1 -83 -4 -94 -6z"/>
<path d="M1627 654 c-14 -15 -6 -46 13 -51 19 -5 20 -14 20 -143 0 -129 -1
-138 -20 -143 -12 -3 -20 -14 -20 -26 0 -19 6 -21 70 -21 67 0 70 1 70 24 0
15 -7 26 -20 29 -18 5 -20 14 -20 96 0 50 3 91 8 91 4 0 36 -54 72 -120 l65
-120 38 0 37 0 0 165 c0 140 2 165 15 165 10 0 15 10 15 30 l0 30 -65 0 -65 0
0 -30 c0 -20 5 -30 15 -30 12 0 15 -17 15 -97 0 -53 -3 -93 -7 -90 -4 4 -36
60 -72 125 l-66 117 -45 3 c-25 2 -49 0 -53 -4z"/>
<path d="M2226 638 c-3 -13 -6 -40 -6 -60 0 -27 -4 -38 -15 -38 -9 0 -15 -9
-15 -25 0 -15 6 -25 14 -25 11 0 15 -21 18 -91 3 -81 6 -93 27 -110 14 -11 39
-19 62 -19 36 0 39 2 39 29 0 25 -4 30 -27 33 -27 3 -28 5 -31 75 -3 70 -2 73
23 79 35 9 36 54 0 54 -22 0 -24 4 -27 58 -3 53 -5 57 -29 60 -20 2 -28 -2
-33 -20z"/>
<path d="M2397 653 c-4 -3 -7 -19 -7 -35 0 -25 3 -28 35 -28 33 0 35 2 35 35
0 32 -3 35 -28 35 -16 0 -32 -3 -35 -7z"/>
<path d="M620 514 c0 -15 6 -24 15 -24 12 0 15 -16 15 -85 0 -69 -3 -85 -15
-85 -9 0 -15 -9 -15 -25 0 -24 2 -25 65 -25 63 0 65 1 65 25 0 16 -6 25 -15
25 -12 0 -15 14 -15 68 0 75 9 92 52 92 l28 0 0 -80 c0 -64 -3 -80 -15 -80 -9
0 -15 -9 -15 -25 0 -24 2 -25 65 -25 63 0 65 1 65 25 0 16 -6 25 -15 25 -12 0
-15 16 -15 85 0 77 -2 88 -24 110 -22 22 -32 24 -125 24 -100 0 -101 0 -101
-25z"/>
<path d="M1170 495 c0 -41 2 -45 25 -45 14 0 28 7 31 15 4 9 19 15 40 15 26 0
34 -4 34 -18 0 -15 -13 -22 -55 -31 -87 -20 -119 -78 -74 -135 20 -25 24 -26
125 -26 l104 0 0 25 c0 16 -6 25 -15 25 -12 0 -15 16 -15 84 0 69 -4 88 -21
110 -19 24 -26 26 -100 26 l-79 0 0 -45z m130 -140 c0 -22 -4 -25 -40 -25 -46
0 -56 24 -17 40 40 16 57 12 57 -15z"/>
<path d="M1410 518 c0 -11 8 -22 20 -25 18 -5 20 -14 20 -88 0 -74 -2 -83 -20
-88 -12 -3 -20 -14 -20 -26 0 -19 6 -21 70 -21 64 0 70 2 70 21 0 12 -8 23
-20 26 -17 5 -20 14 -20 65 0 33 5 68 10 79 13 23 60 26 60 4 0 -9 9 -15 25
-15 23 0 25 4 25 45 l0 44 -110 0 c-104 0 -110 -2 -110 -21z"/>
<path d="M1980 495 c0 -41 2 -45 24 -45 13 0 27 7 30 16 4 10 16 14 38 12 51
-5 41 -30 -17 -44 -84 -22 -123 -96 -75 -144 17 -17 33 -20 125 -20 l105 0 0
25 c0 15 -6 25 -14 25 -11 0 -15 21 -18 91 -4 117 -16 129 -124 129 l-74 0 0
-45z m130 -140 c0 -22 -4 -25 -40 -25 -33 0 -40 3 -40 19 0 20 16 28 58 30 17
1 22 -4 22 -24z"/>
<path d="M2360 515 c0 -16 6 -25 15 -25 12 0 15 -16 15 -85 0 -69 -3 -85 -15
-85 -9 0 -15 -9 -15 -25 0 -24 2 -25 65 -25 63 0 65 1 65 25 0 16 -6 25 -15
25 -12 0 -15 19 -15 110 l0 110 -50 0 c-47 0 -50 -2 -50 -25z"/>
<path d="M2511 514 c-17 -22 -21 -41 -21 -105 0 -69 3 -81 26 -108 23 -28 31
-31 84 -31 81 0 109 24 117 102 7 71 -3 124 -28 149 -15 15 -33 19 -88 19 -63
0 -71 -2 -90 -26z m134 -109 l0 -70 -40 0 -40 0 -3 73 -3 73 43 -3 43 -3 0
-70z"/>
<path d="M2710 518 c0 -11 8 -22 20 -25 18 -5 20 -14 20 -88 0 -74 -2 -83 -20
-88 -12 -3 -20 -14 -20 -26 0 -19 6 -21 70 -21 68 0 70 1 70 25 0 16 -6 25
-15 25 -13 0 -15 13 -13 78 l3 77 35 0 35 0 3 -77 c2 -65 0 -78 -13 -78 -9 0
-15 -9 -15 -25 0 -24 2 -25 65 -25 63 0 65 1 65 25 0 15 -6 25 -14 25 -11 0
-15 21 -18 91 -4 123 -11 128 -153 128 -99 0 -105 -2 -105 -21z"/>
<path d="M0 110 l0 -110 1195 0 1195 0 0 110 0 110 -1195 0 -1195 0 0 -110z
m1390 54 c0 -12 -7 -14 -29 -9 -41 9 -50 -13 -12 -26 27 -9 51 -35 51 -53 0
-16 -36 -36 -66 -36 -27 0 -34 4 -34 19 0 17 5 19 35 14 46 -7 46 12 0 31 -65
27 -54 76 16 76 29 0 39 -4 39 -16z m138 -12 c4 -29 -14 -52 -40 -52 -17 0
-20 -5 -14 -30 5 -28 3 -30 -24 -30 -29 0 -40 13 -20 25 14 9 12 89 -2 104
-11 10 -2 12 42 9 49 -3 55 -6 58 -26z m140 -30 c2 -31 -2 -60 -9 -68 -14 -17
-61 -18 -77 -2 -13 13 -17 110 -5 122 4 4 25 6 48 4 l40 -3 3 -53z m138 33 c3
-14 1 -31 -4 -38 -12 -14 -5 -57 9 -57 5 0 9 -4 9 -10 0 -24 -39 -8 -49 20
-13 40 -36 40 -27 0 5 -26 3 -30 -17 -30 -21 0 -22 4 -22 70 l0 70 47 0 c42 0
48 -3 54 -25z m144 12 c0 -22 -12 -28 -28 -15 -13 11 -14 5 -10 -50 4 -58 3
-62 -17 -62 -20 0 -21 4 -17 60 3 40 1 60 -7 60 -6 0 -11 -4 -11 -10 0 -5 -4
-10 -10 -10 -5 0 -10 9 -10 20 0 18 7 20 55 20 39 0 55 -4 55 -13z m120 -3 c0
-12 -7 -14 -29 -9 -41 9 -50 -13 -12 -26 42 -15 54 -40 35 -67 -20 -29 -84
-31 -84 -3 0 14 7 19 28 17 37 -2 39 17 3 27 -33 8 -49 40 -31 62 17 21 90 20
90 -1z"/>
<path d="M1470 145 c0 -8 7 -15 15 -15 8 0 15 7 15 15 0 8 -7 15 -15 15 -8 0
-15 -7 -15 -15z"/>
<path d="M1594 146 c-3 -8 -4 -27 -2 -43 2 -20 9 -29 26 -31 20 -3 22 1 22 42
0 40 -3 46 -20 46 -11 0 -23 -6 -26 -14z"/>
<path d="M1740 146 c0 -10 9 -16 21 -16 24 0 21 23 -4 28 -10 2 -17 -3 -17
-12z"/>
</g>
</svg>
