<?xml version="1.0" standalone="no"?>
<!DOCTYPE svg PUBLIC "-//W3C//DTD SVG 20010904//EN"
 "http://www.w3.org/TR/2001/REC-SVG-20010904/DTD/svg10.dtd">
<svg version="1.0" xmlns="http://www.w3.org/2000/svg"
 width="120px" height="120px" viewBox="0 0 1080.000000 1080.000000"
 preserveAspectRatio="xMidYMid meet">

<g transform="translate(0.000000,1080.000000) scale(0.100000,-0.100000)"
fill="#f9f9f9" stroke="none">
<path d="M0 5400 l0 -5400 5400 0 5400 0 0 5400 0 5400 -5400 0 -5400 0 0
-5400z m5578 3902 l132 -199 0 -331 c0 -282 -2 -332 -14 -332 -17 0 -106 107
-190 228 -32 45 -59 82 -60 82 -2 0 -20 -26 -41 -57 -66 -100 -149 -204 -264
-331 l-111 -123 0 -1139 0 -1138 208 110 207 110 112 -58 c169 -88 151 -55
155 -299 l3 -210 -37 3 c-21 2 -38 1 -38 -2 0 -3 14 -72 31 -153 83 -400 244
-729 445 -911 l69 -62 -744 0 -744 0 74 78 c191 201 353 502 429 797 32 123
60 265 53 265 -3 0 -37 -21 -75 -47 -123 -81 -353 -155 -513 -165 l-50 -3 -3
548 -2 547 -415 0 -415 0 0 -22 c0 -102 54 -276 112 -366 71 -109 187 -196
331 -245 15 -6 17 -25 17 -217 0 -125 -4 -210 -9 -210 -30 0 -210 69 -291 111
-277 144 -463 363 -530 624 -92 358 -12 746 229 1115 124 190 260 346 556 640
297 294 500 518 750 825 42 52 202 290 393 585 90 141 97 150 103 150 3 0 65
-89 137 -198z m409 -609 c136 -183 386 -447 598 -633 102 -90 340 -328 424
-425 128 -147 245 -310 235 -327 -3 -5 -114 -8 -247 -8 l-242 0 -60 71 c-57
68 -397 400 -416 407 -6 2 -8 -171 -7 -430 l3 -433 365 -5 364 -5 27 -53 c23
-47 79 -269 79 -315 0 -16 -28 -17 -425 -17 l-425 0 0 -344 0 -344 67 -8 c264
-28 509 64 652 244 l33 42 230 0 229 0 -7 -22 c-9 -32 -70 -142 -116 -210
-148 -221 -386 -371 -679 -425 -199 -37 -574 -15 -749 44 l-55 18 -3 1663 c-1
914 2 1662 6 1662 4 0 58 -66 119 -147z m-3781 -5142 c41 -19 114 -94 114
-118 0 -7 -17 -21 -37 -32 l-38 -19 -35 38 c-78 85 -180 59 -233 -60 -28 -60
-30 -204 -4 -271 39 -101 131 -146 202 -98 19 13 40 34 46 46 7 13 19 23 26
23 24 0 73 -30 73 -44 0 -22 -69 -105 -102 -122 -41 -21 -124 -29 -174 -15
-172 46 -257 298 -174 515 54 141 210 214 336 157z m3811 -9 c50 -26 89 -71
122 -142 20 -45 26 -74 29 -156 6 -161 -36 -267 -135 -335 -45 -31 -54 -34
-128 -34 -92 0 -128 15 -187 77 -53 56 -80 134 -86 244 -9 181 59 313 185 360
51 19 148 12 200 -14z m-4350 -167 c30 -99 72 -241 95 -315 60 -200 61 -182
-7 -178 l-58 3 -22 65 -22 65 -106 3 c-120 3 -115 6 -137 -85 l-12 -53 -59 0
c-32 0 -59 4 -59 10 0 8 181 619 195 658 3 9 24 12 72 10 l67 -3 53 -180z
m1123 135 l0 -50 -130 0 -130 0 0 -90 0 -90 125 0 125 0 0 -50 0 -50 -125 0
-125 0 0 -100 0 -100 130 0 130 0 0 -50 0 -50 -185 0 -185 0 0 340 0 340 185
0 185 0 0 -50z m539 -142 c35 -106 68 -204 74 -218 8 -22 19 3 82 190 l72 215
74 0 74 0 3 -337 2 -338 -55 0 -55 0 -2 243 -3 242 -81 -240 c-68 -204 -84
-240 -101 -243 -16 -2 -24 5 -33 30 -6 18 -42 125 -80 238 l-69 205 0 -237 -1
-238 -60 0 -60 0 0 333 c0 184 3 337 7 340 3 4 38 7 77 7 l71 0 64 -192z m791
170 c5 -13 32 -102 60 -198 29 -96 69 -232 91 -302 21 -69 39 -133 39 -143 0
-13 -10 -15 -57 -13 l-57 3 -20 68 -19 68 -111 -3 -111 -3 -19 -67 -20 -68
-58 0 c-32 0 -58 4 -58 8 0 4 9 35 19 68 11 32 43 138 71 234 28 96 65 219 82
273 l30 97 64 0 c57 0 65 -2 74 -22z m564 10 c98 -30 150 -136 126 -254 -9
-44 -20 -64 -52 -95 -22 -21 -44 -39 -49 -39 -16 0 -9 -20 51 -148 l60 -127
-57 -3 c-31 -2 -59 1 -64 5 -4 4 -32 62 -62 128 l-54 120 -39 0 -39 0 -5 -125
-5 -125 -52 -3 -53 -3 0 340 0 341 126 0 c71 0 145 -5 168 -12z m410 -30 c8
-24 41 -121 72 -216 35 -109 60 -169 65 -161 4 7 38 104 75 216 l68 203 73 0
73 0 0 -341 0 -340 -52 3 -53 3 -5 230 c-6 265 3 268 -96 -33 -89 -273 -83
-275 -189 43 l-80 240 -3 -242 -2 -243 -55 0 -55 0 0 340 0 340 74 0 74 0 16
-42z m1704 26 c51 -21 100 -71 112 -114 29 -104 -1 -211 -73 -258 -35 -23 -54
-28 -136 -32 l-96 -5 -3 -127 -3 -128 -54 0 -55 0 0 333 c0 184 3 337 7 340 3
4 64 7 135 7 94 0 139 -4 166 -16z m303 -84 c15 -52 47 -165 70 -250 23 -85
45 -161 49 -168 7 -14 16 15 101 326 l52 192 58 0 c33 0 59 -3 59 -8 0 -6 -86
-300 -124 -422 -8 -25 -28 -91 -46 -148 l-31 -103 -66 3 -66 3 -32 105 c-63
203 -165 548 -165 560 0 7 19 10 57 8 l57 -3 27 -95z m839 50 l0 -50 -75 0
-75 0 0 -290 0 -290 -55 0 -55 0 0 290 0 289 -77 3 -78 3 -3 48 -3 47 210 0
211 0 0 -50z m411 38 c1 -7 1 -129 0 -271 -1 -142 1 -267 4 -278 6 -17 17 -19
121 -19 l114 0 0 -50 0 -50 -169 0 c-129 0 -170 3 -174 13 -7 18 -8 647 -1
658 8 14 104 11 105 -3z m639 -38 l0 -50 -75 0 -75 0 0 -290 0 -290 -55 0 -55
0 0 290 0 289 -77 3 -78 3 -3 33 c-6 64 -12 62 213 62 l205 0 0 -50z m416 22
c58 -30 103 -78 133 -142 23 -49 26 -67 26 -170 0 -97 -4 -122 -22 -162 -33
-72 -68 -112 -125 -144 -50 -27 -61 -29 -195 -32 l-143 -4 0 334 c0 184 3 338
8 342 4 5 68 6 142 4 114 -3 141 -7 176 -26z m-6856 -1327 c0 -104 -2 -125
-15 -125 -13 0 -15 21 -15 125 0 104 2 125 15 125 13 0 15 -21 15 -125z m230
110 c0 -11 -11 -15 -40 -15 l-40 0 0 -105 c0 -87 -3 -105 -15 -105 -12 0 -15
18 -15 105 l0 105 -40 0 c-29 0 -40 4 -40 15 0 12 17 15 95 15 78 0 95 -3 95
-15z m148 -87 c23 -57 44 -111 48 -120 13 -36 -27 -19 -42 17 -14 34 -16 35
-68 35 -53 0 -55 -1 -61 -31 -6 -27 -29 -48 -40 -37 -3 2 9 40 25 84 74 195
81 197 138 52z m112 -3 l0 -104 57 -3 c34 -2 58 -8 61 -15 3 -10 -16 -13 -72
-13 l-76 0 0 120 c0 100 3 120 15 120 12 0 15 -18 15 -105z m200 -20 c0 -118
-1 -125 -20 -125 -19 0 -20 7 -20 125 0 118 1 125 20 125 19 0 20 -7 20 -125z
m194 12 c25 -63 46 -117 46 -120 0 -4 -7 -7 -16 -7 -8 0 -22 16 -30 35 -14 33
-17 35 -64 35 -47 0 -50 -2 -64 -35 -9 -20 -22 -35 -32 -35 -9 0 -14 5 -11 13
9 20 74 191 80 210 4 9 15 17 25 17 15 0 30 -25 66 -113z m171 19 l60 -88 3
91 c2 72 6 91 17 91 12 0 15 -21 15 -120 0 -150 -11 -156 -83 -45 -74 113 -77
113 -77 11 0 -70 -3 -86 -15 -86 -13 0 -15 20 -15 121 0 109 2 120 18 117 9
-2 44 -43 77 -92z m273 -63 c-3 -141 -5 -158 -20 -161 -17 -3 -18 10 -18 157
0 155 1 161 20 161 20 0 20 -5 18 -157z m337 132 c14 -13 25 -29 25 -35 0 -15
-28 -12 -37 4 -11 18 -47 36 -72 36 -34 0 -72 -41 -77 -85 -9 -78 45 -127 117
-106 31 9 39 17 39 36 0 19 -6 24 -32 27 -55 5 -46 28 11 28 l51 0 0 -49 c0
-48 -1 -49 -42 -66 -93 -37 -178 18 -178 116 0 45 4 55 34 85 30 30 40 34 85
34 42 0 57 -5 76 -25z m243 9 c32 -22 30 -76 -3 -101 l-25 -18 30 -44 c17 -24
30 -48 30 -53 0 -18 -29 -6 -45 20 -34 53 -68 82 -97 82 -27 0 -28 -1 -28 -55
0 -42 -3 -55 -15 -55 -12 0 -15 20 -15 120 l0 120 73 0 c49 0 80 -5 95 -16z
m210 -69 c59 -139 64 -155 44 -155 -11 0 -23 13 -31 35 -12 34 -14 35 -66 35
-52 0 -54 -1 -65 -35 -6 -19 -18 -35 -26 -35 -8 0 -14 3 -14 6 0 9 70 196 82
217 18 34 41 13 76 -68z m179 -6 l58 -91 5 89 c4 69 8 88 20 88 12 0 15 -19
15 -115 0 -151 -11 -155 -91 -36 -31 47 -61 83 -65 80 -5 -3 -9 -41 -9 -85 0
-60 -3 -80 -12 -77 -13 5 -24 197 -14 225 12 30 37 8 93 -78z m193 -34 c0
-104 -2 -125 -15 -125 -13 0 -15 21 -15 125 0 104 2 125 15 125 13 0 15 -21
15 -125z m220 110 c0 -11 -11 -15 -40 -15 l-40 0 0 -105 c0 -87 -3 -105 -15
-105 -12 0 -15 18 -15 104 l0 105 -37 3 c-20 2 -38 9 -41 16 -3 9 20 12 92 12
79 0 96 -3 96 -15z m208 3 c-3 -8 -29 -14 -69 -16 -35 -2 -68 -7 -72 -11 -4
-4 -5 -20 -1 -35 6 -25 9 -26 70 -26 50 0 64 -3 64 -15 0 -12 -14 -15 -65 -15
-45 0 -65 -4 -66 -12 0 -7 -3 -25 -5 -40 l-5 -28 76 0 c60 0 75 -3 75 -15 0
-12 -17 -15 -90 -15 l-90 0 0 120 0 120 91 0 c68 0 90 -3 87 -12z m174 -115
c4 -160 1 -193 -18 -193 -12 0 -14 28 -14 160 0 133 2 160 14 160 12 0 15 -24
18 -127z m228 32 c17 -52 35 -95 38 -95 4 0 21 42 38 93 25 76 34 93 52 95 22
3 22 1 22 -117 0 -101 -2 -121 -15 -121 -12 0 -15 16 -15 87 0 47 -3 83 -6 80
-4 -3 -19 -41 -34 -84 -38 -107 -56 -106 -90 4 -14 46 -28 83 -32 83 -5 0 -8
-38 -8 -85 0 -69 -3 -85 -15 -85 -12 0 -15 20 -15 120 l0 120 24 0 c22 0 28
-10 56 -95z m327 38 c14 -32 36 -86 49 -120 22 -58 23 -63 6 -63 -11 0 -23 13
-31 35 -12 34 -14 35 -66 35 -52 0 -54 -1 -65 -35 -6 -19 -18 -35 -26 -35 -8
0 -14 2 -14 4 0 6 79 216 85 226 15 24 38 6 62 -47z m273 37 c11 -11 20 -31
20 -44 0 -24 -23 -56 -41 -56 -16 0 -10 -19 21 -62 17 -22 30 -45 30 -50 0
-18 -30 -7 -47 18 -36 54 -72 84 -97 84 -25 0 -26 -3 -26 -56 0 -47 -3 -55
-17 -52 -16 3 -18 15 -16 98 1 52 2 105 3 118 0 21 4 22 75 22 62 0 79 -4 95
-20z m220 0 c23 -23 26 -49 7 -75 -12 -15 -11 -21 5 -37 24 -24 23 -63 -2 -88
-18 -18 -31 -20 -92 -18 l-70 3 0 100 c0 55 1 108 1 118 1 27 123 25 151 -3z
m100 -85 l0 -105 60 0 c47 0 60 -3 60 -15 0 -12 -15 -15 -75 -15 l-75 0 0 120
c0 100 3 120 15 120 12 0 15 -18 15 -105z m330 90 c0 -12 -14 -15 -70 -15
l-70 0 0 -35 0 -35 70 0 c56 0 70 -3 70 -15 0 -12 -14 -15 -70 -15 l-70 0 0
-40 0 -39 72 -3 c46 -2 73 -7 76 -15 3 -10 -19 -13 -87 -13 l-91 0 0 120 0
120 85 0 c69 0 85 -3 85 -15z m180 -145 c0 -133 -2 -160 -15 -160 -11 0 -15
28 -17 160 -3 147 -2 160 15 160 15 0 17 -14 17 -160z m310 145 c0 -11 -11
-15 -40 -15 l-40 0 0 -105 c0 -87 -3 -105 -15 -105 -12 0 -15 18 -15 104 l0
105 -37 3 c-20 2 -38 9 -41 16 -3 9 20 12 92 12 79 0 96 -3 96 -15z m80 -110
c0 -118 -1 -125 -20 -125 -19 0 -20 7 -20 125 0 118 1 125 20 125 19 0 20 -7
20 -125z m80 20 l0 -105 55 0 c42 0 55 -3 55 -15 0 -12 -15 -15 -75 -15 l-75
0 0 113 c0 115 3 127 27 127 10 0 13 -24 13 -105z m328 93 c-3 -9 -30 -14 -76
-16 l-72 -3 0 -34 0 -35 70 0 c55 0 70 -3 70 -15 0 -11 -16 -15 -67 -17 l-68
-3 -3 -37 -3 -38 75 0 c61 0 76 -3 76 -15 0 -12 -17 -15 -90 -15 l-90 0 0 120
0 120 91 0 c68 0 90 -3 87 -12z m200 -8 c12 -12 22 -25 22 -30 0 -20 -19 -18
-44 5 -30 28 -54 31 -80 12 -32 -24 -16 -50 42 -67 52 -14 92 -48 92 -75 0
-23 -40 -63 -70 -70 -44 -10 -98 12 -115 45 -21 40 1 51 30 14 27 -34 89 -40
111 -10 21 29 1 51 -64 69 -67 18 -92 50 -71 90 17 31 28 37 80 37 32 0 52 -6
67 -20z"/>
<path d="M4520 7713 c-202 -176 -405 -397 -503 -546 -58 -88 -127 -220 -127
-244 0 -10 74 -13 360 -13 l360 0 0 178 c0 98 3 294 7 435 5 218 4 257 -8 256
-8 0 -48 -30 -89 -66z"/>
<path d="M5843 3455 c-69 -30 -110 -167 -92 -303 16 -114 72 -182 150 -182 71
0 118 50 145 155 33 123 -5 280 -79 325 -37 23 -79 25 -124 5z"/>
<path d="M1522 3354 c-46 -156 -63 -226 -58 -231 6 -6 158 -4 164 1 5 5 -70
279 -79 290 -4 5 -16 -22 -27 -60z"/>
<path d="M4036 3404 c-3 -11 -19 -71 -36 -134 -17 -63 -33 -123 -36 -132 -5
-16 4 -18 85 -18 l91 0 -10 26 c-6 14 -24 78 -41 143 -32 121 -43 145 -53 115z"/>
<path d="M4500 3350 l0 -110 71 0 c65 0 73 2 101 30 28 29 30 35 26 87 -7 81
-35 103 -129 103 l-69 0 0 -110z"/>
<path d="M6604 3447 c-3 -8 -3 -56 -2 -108 l3 -94 71 -3 c59 -2 75 1 97 18 52
41 45 155 -13 185 -37 19 -149 20 -156 2z"/>
<path d="M9199 3289 c-1 -178 -1 -288 0 -301 2 -13 110 -9 144 6 41 16 81 63
99 113 21 62 16 189 -11 249 -32 74 -69 98 -158 102 l-73 4 -1 -173z"/>
<path d="M2851 2253 c-8 -21 -16 -44 -18 -50 -4 -9 7 -13 36 -13 23 0 41 2 41
4 0 6 -41 96 -43 96 -2 0 -9 -17 -16 -37z"/>
<path d="M3351 2253 c-7 -21 -15 -44 -17 -50 -4 -9 6 -13 35 -13 23 0 41 2 41
4 0 8 -39 96 -43 96 -2 0 -9 -17 -16 -37z"/>
<path d="M4333 2303 c-8 -3 -13 -22 -13 -44 0 -38 1 -39 38 -39 20 0 47 3 59
6 28 8 40 41 22 60 -15 14 -85 25 -106 17z"/>
<path d="M4596 2250 c-22 -56 -21 -60 20 -60 33 0 36 2 30 25 -9 34 -25 75
-30 75 -2 0 -11 -18 -20 -40z"/>
<path d="M6137 2249 c-22 -59 -22 -59 18 -59 40 0 42 8 17 64 l-18 40 -17 -45z"/>
<path d="M6348 2302 c-14 -3 -18 -13 -18 -43 0 -38 1 -39 34 -39 71 0 115 35
84 66 -14 14 -67 23 -100 16z"/>
<path d="M6570 2265 c0 -35 0 -35 45 -35 49 0 71 21 54 52 -7 13 -22 18 -54
18 -45 0 -45 0 -45 -35z"/>
<path d="M6570 2160 l0 -40 50 0 c38 0 52 4 60 19 13 25 13 27 -6 45 -9 10
-33 16 -60 16 l-44 0 0 -40z"/>
</g>
</svg>
