<?xml version="1.0" standalone="no"?>
<!DOCTYPE svg PUBLIC "-//W3C//DTD SVG 20010904//EN"
 "http://www.w3.org/TR/2001/REC-SVG-20010904/DTD/svg10.dtd">
<svg version="1.0" xmlns="http://www.w3.org/2000/svg"
 width="120px" height="40px" viewBox="0 0 1247.000000 498.000000"
 preserveAspectRatio="xMidYMid meet">

<g transform="translate(0.000000,498.000000) scale(0.100000,-0.100000)"
fill="#f9f9f9" stroke="none">
<path d="M7927 4263 c-4 -3 -7 -606 -7 -1340 l0 -1333 273 2 272 3 5 313 5
312 315 -315 315 -315 537 0 538 0 0 800 0 800 -577 0 -578 0 -277 -277 -278
-278 0 811 c0 731 -2 812 -16 818 -21 8 -519 8 -527 -1z m1703 -1840 l0 -648
-324 324 -325 325 317 322 c174 178 320 323 325 323 4 1 7 -290 7 -646z"/>
<path d="M9807 4155 c-88 -33 -174 -120 -202 -206 -23 -69 -17 -178 13 -241
31 -62 89 -121 154 -155 46 -24 65 -28 138 -28 73 0 93 4 142 28 65 32 131
100 161 167 30 63 29 187 0 252 -31 68 -99 137 -168 169 -49 24 -73 29 -130
28 -38 0 -87 -7 -108 -14z"/>
<path d="M2018 3220 c-410 -74 -685 -475 -638 -930 44 -430 368 -740 772 -740
197 0 344 54 488 178 l49 42 3 -87 3 -88 270 0 270 0 5 630 5 630 71 -130 c38
-71 191 -356 339 -632 l269 -503 182 0 c133 0 184 3 191 13 5 6 88 189 184
404 96 216 178 392 182 390 4 -1 88 -182 186 -402 l179 -400 187 0 187 0 424
790 c233 435 424 793 424 798 0 4 -141 7 -314 7 l-313 0 -189 -419 c-104 -230
-193 -420 -199 -422 -5 -2 -93 185 -196 416 l-187 420 -189 3 -190 2 -188
-425 c-104 -234 -191 -425 -194 -425 -4 0 -92 190 -197 423 l-190 422 -507 3
-507 2 0 -70 c0 -41 -4 -70 -10 -70 -6 0 -33 18 -61 40 -60 47 -153 93 -235
116 -68 18 -294 27 -366 14z m427 -475 c65 -19 145 -76 184 -130 50 -69 64
-118 65 -225 0 -87 -2 -101 -31 -162 -37 -79 -105 -151 -171 -181 -39 -18 -65
-22 -157 -22 -136 0 -188 17 -264 89 -86 82 -116 164 -109 298 8 163 93 278
241 329 64 22 176 24 242 4z"/>
<path d="M6618 3220 c-158 -27 -329 -123 -430 -242 -148 -176 -210 -345 -212
-578 -2 -201 39 -348 136 -497 161 -246 394 -365 688 -350 176 9 291 54 424
163 l65 54 3 -88 3 -87 270 0 270 0 0 795 0 795 -240 0 -240 0 -32 -50 c-18
-27 -33 -57 -33 -67 0 -9 -6 -21 -14 -25 -11 -7 -196 -307 -196 -319 0 -2 47
-4 105 -4 58 0 105 -2 105 -5 0 -10 -642 -926 -646 -922 -2 2 59 161 136 352
77 192 140 351 140 353 0 3 -52 3 -115 0 -63 -3 -115 -1 -115 3 0 5 65 162
145 349 80 186 145 343 145 349 0 25 -249 40 -362 21z"/>
<path d="M10561 2249 c-99 -17 -202 -96 -251 -194 -22 -43 -25 -63 -25 -150 0
-91 3 -105 29 -158 40 -77 116 -148 191 -176 83 -32 207 -26 280 11 262 135
265 505 5 638 -33 17 -139 42 -164 39 -6 -1 -36 -5 -65 -10z"/>
<path d="M3734 941 c-47 -29 -64 -59 -64 -114 0 -44 4 -54 39 -88 36 -36 43
-39 94 -39 39 0 61 5 78 19 35 29 14 47 -30 25 -67 -33 -141 10 -141 83 0 45
14 69 50 88 36 19 57 19 94 0 28 -15 46 -13 46 5 0 16 -58 40 -97 40 -21 0
-52 -9 -69 -19z"/>
<path d="M4100 831 c0 -124 1 -131 20 -131 17 0 20 7 20 40 0 40 0 40 39 40
33 0 42 -5 66 -40 16 -22 36 -40 46 -40 25 0 24 5 -7 46 l-27 34 27 26 c34 35
35 83 2 121 -22 25 -31 28 -105 31 l-81 4 0 -131z m156 78 c8 -6 14 -24 14
-40 0 -37 -33 -59 -87 -59 l-43 0 0 53 c0 30 3 57 8 61 10 11 92 -1 108 -15z"/>
<path d="M4520 830 l0 -131 90 3 c50 2 91 8 93 13 1 6 -30 12 -73 15 l-75 5
-3 37 -3 37 63 3 c50 2 63 7 66 20 3 14 -7 17 -60 20 l-63 3 0 35 0 35 73 3
c55 2 72 6 72 17 0 12 -18 15 -90 15 l-90 0 0 -130z"/>
<path d="M4938 853 c-72 -154 -71 -153 -47 -153 13 0 24 10 30 30 11 30 12 30
84 30 72 0 73 0 84 -30 7 -20 17 -30 30 -30 12 0 21 2 21 3 0 6 -104 230 -113
245 -20 30 -40 8 -89 -95z m92 11 c11 -26 20 -50 20 -55 0 -5 -20 -9 -45 -9
-25 0 -45 4 -45 9 0 11 40 101 45 101 2 0 13 -21 25 -46z"/>
<path d="M5290 945 c0 -11 11 -15 40 -15 l39 0 3 -112 c3 -97 5 -113 20 -116
15 -3 18 9 20 110 l3 113 43 3 c28 2 42 8 42 18 0 11 -20 14 -105 14 -87 0
-105 -3 -105 -15z"/>
<path d="M5690 830 c0 -109 2 -130 15 -130 13 0 15 21 15 130 0 109 -2 130
-15 130 -13 0 -15 -21 -15 -130z"/>
<path d="M5910 956 c0 -3 24 -60 54 -128 72 -166 78 -166 151 1 30 68 55 126
55 128 0 1 -8 3 -18 3 -14 0 -30 -25 -62 -100 -24 -55 -46 -100 -49 -100 -4 0
-26 45 -50 100 -33 76 -48 100 -62 100 -11 0 -19 -2 -19 -4z"/>
<path d="M6357 953 c-4 -3 -7 -62 -7 -130 l0 -123 95 0 c77 0 95 3 95 15 0 11
-17 15 -72 17 l-73 3 -3 37 -3 37 63 3 c50 2 63 6 66 21 3 15 -5 17 -63 17
l-66 0 3 38 3 37 73 3 c55 2 72 6 72 17 0 12 -18 15 -88 15 -49 0 -92 -3 -95
-7z"/>
<path d="M6990 831 c0 -123 1 -131 20 -131 17 0 19 8 22 87 l3 88 43 -73 c24
-39 47 -72 51 -72 5 0 28 33 52 73 l44 72 3 -87 c3 -80 5 -88 23 -88 19 0 19
6 17 127 -4 162 -13 168 -82 48 -27 -47 -53 -84 -57 -83 -5 2 -31 39 -57 83
-27 44 -56 81 -65 83 -15 3 -17 -10 -17 -127z"/>
<path d="M7490 830 l0 -130 95 0 c77 0 95 3 95 15 0 11 -17 15 -72 17 l-73 3
-3 37 -3 37 63 3 c48 2 63 7 63 18 0 11 -15 16 -63 18 l-63 3 3 37 3 37 68 3
c51 2 67 6 67 17 0 12 -18 15 -90 15 l-90 0 0 -130z"/>
<path d="M7887 953 c-4 -3 -7 -62 -7 -130 l0 -123 75 0 c119 0 175 41 175 130
0 56 -26 95 -76 116 -34 14 -155 19 -167 7z m135 -33 c46 -13 68 -43 68 -93 0
-63 -64 -106 -141 -95 -23 3 -24 7 -27 87 -2 46 -1 90 2 98 6 16 47 17 98 3z"/>
<path d="M8337 953 c-4 -3 -7 -62 -7 -130 0 -116 1 -123 20 -123 19 0 20 7 20
130 0 102 -3 130 -13 130 -8 0 -17 -3 -20 -7z"/>
<path d="M8661 938 c-5 -13 -27 -62 -49 -109 -55 -118 -58 -129 -35 -129 11 0
23 12 30 30 11 29 12 30 83 30 71 0 72 -1 83 -30 10 -27 47 -44 47 -22 0 5
-25 62 -55 128 -41 89 -60 120 -75 122 -13 2 -23 -4 -29 -20z m54 -75 c11 -26
22 -51 23 -55 2 -4 -20 -8 -48 -8 -28 0 -50 4 -48 8 2 4 12 29 23 55 11 26 22
47 25 47 3 0 14 -21 25 -47z"/>
</g>
</svg>
