<?xml version="1.0" standalone="no"?>
<!DOCTYPE svg PUBLIC "-//W3C//DTD SVG 20010904//EN"
 "http://www.w3.org/TR/2001/REC-SVG-20010904/DTD/svg10.dtd">
<svg version="1.0" xmlns="http://www.w3.org/2000/svg"
 width="240px" height="240px" viewBox="0 0 1563.000000 1563.000000"
 preserveAspectRatio="xMidYMid meet">

<g transform="translate(0.000000,1563.000000) scale(0.100000,-0.100000)"
fill="#f9f9f9" stroke="none">
<path d="M9492 8308 l3 -1333 273 -3 272 -2 0 315 c0 173 3 315 8 315 4 0 149
-142 322 -315 l315 -315 537 0 538 0 0 800 0 800 -578 0 -577 0 -275 -275
c-151 -151 -278 -275 -282 -275 -5 0 -8 365 -8 810 l0 810 -275 0 -275 0 2
-1332z m1716 -823 l-3 -325 -323 323 -324 324 324 328 323 328 3 -327 c1 -179
1 -472 0 -651z"/>
<path d="M11373 9529 c-28 -11 -74 -41 -102 -67 -137 -129 -140 -333 -6 -467
68 -69 122 -90 225 -90 103 0 157 21 225 90 134 134 131 338 -6 467 -90 85
-221 111 -336 67z"/>
<path d="M3596 8600 c-115 -21 -255 -85 -344 -158 -120 -98 -230 -274 -274
-437 -31 -116 -31 -356 0 -470 77 -285 289 -510 547 -580 94 -26 265 -31 366
-11 111 22 232 81 308 151 32 30 61 55 65 55 3 0 6 -40 6 -90 l0 -90 270 0
270 0 0 637 c0 414 3 634 10 627 5 -5 160 -291 344 -634 l335 -625 187 0 188
0 183 410 182 409 38 -84 c21 -46 103 -231 183 -410 l145 -325 186 -3 186 -2
424 791 c233 435 426 795 427 800 2 6 -126 8 -313 7 l-317 -3 -191 -422 c-105
-233 -193 -423 -196 -423 -3 0 -91 191 -195 425 l-188 425 -190 -2 -189 -3
-188 -423 c-103 -232 -190 -424 -192 -426 -2 -2 -90 188 -196 423 l-192 426
-508 0 -508 0 -3 -73 -3 -73 -40 35 c-54 46 -164 103 -247 128 -76 23 -293 33
-376 18z m464 -486 c68 -31 153 -115 180 -175 83 -194 12 -414 -165 -507 -46
-25 -60 -27 -165 -27 -103 0 -121 3 -170 26 -146 69 -223 223 -198 401 18 137
91 228 227 285 48 20 69 23 151 20 68 -2 108 -9 140 -23z"/>
<path d="M8193 8599 c-283 -47 -516 -267 -609 -574 -24 -81 -27 -106 -28 -250
-1 -140 2 -171 23 -245 86 -309 313 -531 599 -586 231 -44 474 15 621 151 32
30 61 55 65 55 3 0 6 -40 6 -90 l0 -90 270 0 270 0 0 800 0 800 -241 -2 -241
-3 -37 -70 c-20 -38 -41 -74 -47 -80 -12 -10 -184 -300 -184 -309 0 -3 47 -7
106 -8 l105 -3 -328 -471 c-180 -259 -329 -470 -331 -469 -2 2 53 142 122 311
68 170 134 333 146 363 l21 54 -116 -5 c-85 -4 -115 -2 -115 6 0 7 65 165 145
352 80 186 145 342 145 345 0 24 -257 36 -367 18z"/>
<path d="M12130 7626 c-75 -17 -115 -39 -175 -100 -69 -68 -97 -142 -97 -249
0 -64 5 -88 30 -140 34 -73 97 -139 167 -175 39 -20 69 -26 135 -30 120 -6
184 19 266 102 75 76 104 144 104 244 0 126 -45 216 -143 288 -84 62 -185 84
-287 60z"/>
<path d="M5324 6330 c-41 -16 -74 -68 -74 -116 0 -85 47 -134 130 -134 54 0
106 26 90 45 -9 11 -15 11 -38 -1 -42 -22 -78 -17 -114 15 -85 76 9 210 110
157 26 -13 32 -13 42 -1 25 31 -88 59 -146 35z"/>
<path d="M5680 6210 c0 -123 1 -130 20 -130 17 0 20 7 20 40 0 40 0 40 39 40
34 0 42 -5 65 -40 16 -25 34 -40 47 -40 19 0 18 3 -10 44 -24 34 -27 45 -16
49 28 11 48 55 41 92 -10 52 -52 75 -138 75 l-68 0 0 -130z m158 73 c34 -47
-3 -93 -75 -93 l-43 0 0 61 0 62 53 -6 c32 -4 57 -13 65 -24z"/>
<path d="M6090 6210 l0 -130 95 0 c78 0 95 3 95 15 0 12 -15 15 -76 15 l-75 0
3 43 3 42 63 3 c46 2 62 7 62 17 0 12 -15 15 -65 15 l-65 0 0 40 0 40 75 0
c60 0 75 3 75 15 0 12 -17 15 -95 15 l-95 0 0 -130z"/>
<path d="M6509 6219 c-30 -67 -55 -126 -57 -130 -2 -5 5 -9 16 -9 12 0 24 11
32 30 12 29 14 30 81 30 66 0 69 -1 84 -30 9 -17 24 -30 35 -30 16 0 12 16
-39 128 -78 170 -81 170 -152 11z m121 -36 c0 -9 -17 -13 -50 -13 -27 0 -50 2
-50 5 0 2 12 30 26 62 l26 58 24 -50 c13 -27 24 -56 24 -62z"/>
<path d="M6860 6325 c0 -11 12 -15 45 -15 l45 0 0 -115 c0 -108 1 -115 20
-115 19 0 20 7 20 115 l0 115 45 0 c33 0 45 4 45 15 0 12 -19 15 -110 15 -91
0 -110 -3 -110 -15z"/>
<path d="M7260 6210 c0 -123 1 -130 20 -130 19 0 20 7 20 130 0 123 -1 130
-20 130 -19 0 -20 -7 -20 -130z"/>
<path d="M7490 6332 c0 -5 24 -62 53 -128 67 -151 80 -157 125 -52 17 40 42
99 56 131 26 57 26 58 6 55 -16 -2 -32 -27 -64 -100 -23 -54 -44 -99 -47 -102
-2 -3 -24 42 -49 100 -33 76 -49 104 -62 104 -10 0 -18 -4 -18 -8z"/>
<path d="M7930 6210 l0 -130 95 0 c78 0 95 3 95 15 0 12 -15 15 -75 15 l-75 0
0 45 0 45 65 0 c51 0 65 3 65 15 0 12 -14 15 -65 15 l-65 0 0 40 0 40 70 0
c56 0 70 3 70 15 0 12 -17 15 -90 15 l-90 0 0 -130z"/>
<path d="M8570 6210 c0 -107 3 -130 15 -130 11 0 15 19 17 93 l3 92 45 -74
c25 -41 50 -76 56 -78 6 -2 30 32 55 74 l44 78 3 -93 c2 -73 6 -92 17 -92 12
0 15 23 15 130 0 104 -3 130 -14 130 -7 0 -37 -41 -66 -91 -29 -49 -53 -89
-55 -87 -2 2 -26 42 -54 91 -73 122 -81 118 -81 -43z"/>
<path d="M9070 6210 l0 -130 95 0 c78 0 95 3 95 15 0 12 -15 15 -75 15 l-75 0
0 45 0 45 66 0 c48 0 65 3 62 13 -3 7 -28 13 -66 15 l-62 3 0 39 0 40 70 0
c56 0 70 3 70 15 0 12 -17 15 -90 15 l-90 0 0 -130z"/>
<path d="M9460 6210 l0 -130 70 0 c86 0 133 18 160 62 40 66 13 155 -55 184
-19 8 -66 14 -105 14 l-70 0 0 -130z m142 90 c21 -6 44 -21 53 -33 17 -25 20
-79 4 -109 -14 -26 -68 -48 -119 -48 l-40 0 0 100 0 100 33 0 c17 0 49 -5 69
-10z"/>
<path d="M9910 6210 c0 -123 1 -130 20 -130 19 0 20 7 20 130 0 123 -1 130
-20 130 -19 0 -20 -7 -20 -130z"/>
<path d="M10226 6288 c-13 -29 -40 -88 -59 -130 -34 -73 -35 -78 -16 -78 14 0
25 10 32 30 11 29 13 30 83 30 70 0 72 -1 84 -30 8 -19 20 -30 32 -30 12 0 18
5 15 13 -2 6 -28 65 -57 130 -63 139 -78 147 -114 65z m70 -53 c13 -31 24 -58
24 -60 0 -3 -22 -5 -50 -5 -29 0 -50 5 -50 11 0 13 41 109 47 109 2 0 15 -25
29 -55z"/>
</g>
</svg>
