<!-- <svg width="219" height="72" viewBox="0 0 219 72" fill="none" xmlns="http://www.w3.org/2000/svg">
<path d="M14.0763 17.98H20.3163V23.68H14.0763V39.04C14.0763 40.48 14.3163 41.44 14.7963 41.92C15.2763 42.4 16.2363 42.64 17.6763 42.64C18.6363 42.64 19.5163 42.56 20.3163 42.4V49.06C19.5963 49.18 18.7963 49.26 17.9163 49.3C17.0363 49.34 16.1763 49.36 15.3363 49.36C14.0163 49.36 12.7563 49.26 11.5563 49.06C10.3963 48.9 9.35633 48.56 8.43633 48.04C7.55633 47.48 6.85633 46.72 6.33633 45.76C5.81633 44.8 5.55633 43.54 5.55633 41.98V23.68H0.396331V17.98H5.55633V8.68H14.0763V17.98ZM42.0701 52.9C41.1501 55.38 39.8701 57.16 38.2301 58.24C36.5901 59.36 34.3101 59.92 31.3901 59.92C30.5101 59.92 29.6301 59.88 28.7501 59.8C27.9101 59.76 27.0501 59.7 26.1701 59.62V52.6C26.9701 52.68 27.7901 52.76 28.6301 52.84C29.4701 52.92 30.3101 52.94 31.1501 52.9C31.8701 52.82 32.4701 52.58 32.9501 52.18C33.4701 51.82 33.8501 51.36 34.0901 50.8C34.3301 50.24 34.4501 49.64 34.4501 49C34.4501 48.32 34.3301 47.68 34.0901 47.08L23.1701 17.98H32.2901L39.3101 39.22H39.4301L46.2101 17.98H55.0301L42.0701 52.9ZM57.8834 17.98H65.9834V22.3H66.1634C67.2434 20.54 68.6434 19.24 70.3634 18.4C72.0834 17.56 73.8434 17.14 75.6434 17.14C77.9234 17.14 79.7834 17.46 81.2234 18.1C82.7034 18.7 83.8634 19.56 84.7034 20.68C85.5434 21.76 86.1234 23.1 86.4434 24.7C86.8034 26.26 86.9834 28 86.9834 29.92V49H78.4634V31.48C78.4634 28.92 78.0434 27.02 77.2034 25.78C76.4034 24.5 75.0034 23.86 73.0034 23.86C70.6834 23.86 69.0034 24.56 67.9634 25.96C66.9234 27.32 66.4034 29.58 66.4034 32.74V49H57.8834V17.98ZM113.67 33.4C113.67 32.16 113.55 30.94 113.31 29.74C113.07 28.54 112.65 27.5 112.05 26.62C111.49 25.7 110.73 24.96 109.77 24.4C108.85 23.84 107.71 23.56 106.35 23.56C104.95 23.56 103.77 23.84 102.81 24.4C101.85 24.96 101.07 25.7 100.47 26.62C99.9098 27.54 99.4898 28.6 99.2098 29.8C98.9698 30.96 98.8498 32.18 98.8498 33.46C98.8498 34.66 98.9898 35.86 99.2698 37.06C99.5498 38.26 99.9898 39.34 100.59 40.3C101.23 41.22 102.01 41.98 102.93 42.58C103.89 43.14 105.03 43.42 106.35 43.42C107.75 43.42 108.91 43.14 109.83 42.58C110.79 42.02 111.55 41.28 112.11 40.36C112.67 39.4 113.07 38.32 113.31 37.12C113.55 35.92 113.67 34.68 113.67 33.4ZM113.79 45.04H113.67C112.67 46.72 111.35 47.94 109.71 48.7C108.07 49.46 106.25 49.84 104.25 49.84C101.89 49.84 99.8298 49.38 98.0698 48.46C96.3498 47.54 94.9098 46.32 93.7498 44.8C92.6298 43.24 91.7698 41.46 91.1698 39.46C90.6098 37.46 90.3298 35.38 90.3298 33.22C90.3298 31.14 90.6098 29.14 91.1698 27.22C91.7698 25.26 92.6298 23.54 93.7498 22.06C94.9098 20.58 96.3498 19.4 98.0698 18.52C99.7898 17.6 101.79 17.14 104.07 17.14C105.91 17.14 107.65 17.54 109.29 18.34C110.97 19.1 112.29 20.24 113.25 21.76H113.37V6.16H121.89V49H113.79V45.04ZM126.169 27.52C126.289 25.52 126.789 23.86 127.669 22.54C128.549 21.22 129.669 20.16 131.029 19.36C132.389 18.56 133.909 18 135.589 17.68C137.269 17.32 138.989 17.14 140.749 17.14C142.309 17.14 143.889 17.26 145.489 17.5C147.089 17.7 148.549 18.12 149.869 18.76C151.189 19.4 152.269 20.3 153.109 21.46C153.949 22.62 154.369 24.12 154.369 25.96V42.1C154.369 43.5 154.449 44.84 154.609 46.12C154.769 47.4 155.049 48.36 155.449 49H146.809C146.649 48.52 146.509 48.04 146.389 47.56C146.309 47.04 146.249 46.52 146.209 46C144.849 47.4 143.249 48.4 141.409 49C139.569 49.56 137.689 49.84 135.769 49.84C134.289 49.84 132.909 49.64 131.629 49.24C130.349 48.88 129.229 48.32 128.269 47.56C127.309 46.8 126.549 45.84 125.989 44.68C125.469 43.52 125.209 42.14 125.209 40.54C125.209 38.78 125.509 37.34 126.109 36.22C126.709 35.06 127.509 34.14 128.509 33.46C129.509 32.78 130.629 32.28 131.869 31.96C133.149 31.6 134.449 31.32 135.769 31.12C137.089 30.92 138.349 30.76 139.549 30.64C140.749 30.52 141.809 30.34 142.729 30.1C143.689 29.86 144.449 29.52 145.009 29.08C145.569 28.6 145.849 27.92 145.849 27.04C145.849 26.12 145.689 25.4 145.369 24.88C145.089 24.32 144.689 23.9 144.169 23.62C143.689 23.3 143.109 23.1 142.429 23.02C141.789 22.9 141.089 22.84 140.329 22.84C138.689 22.84 137.369 23.2 136.369 23.92C135.409 24.64 134.849 25.84 134.689 27.52H126.169ZM145.849 33.82C145.489 34.14 145.029 34.4 144.469 34.6C143.949 34.76 143.369 34.9 142.729 35.02C142.129 35.14 141.469 35.24 140.749 35.32C140.069 35.4 139.409 35.5 138.769 35.62C138.089 35.74 137.449 35.9 136.849 36.1C136.249 36.3 135.709 36.58 135.229 36.94C134.789 37.26 134.429 37.7 134.149 38.26C133.869 38.78 133.729 39.42 133.729 40.18C133.729 40.98 133.869 41.64 134.149 42.16C134.429 42.64 134.809 43.04 135.289 43.36C135.769 43.64 136.329 43.84 136.969 43.96C137.609 44.08 138.269 44.14 138.949 44.14C140.629 44.14 141.929 43.86 142.849 43.3C143.769 42.74 144.449 42.08 144.889 41.32C145.329 40.52 145.589 39.72 145.669 38.92C145.789 38.12 145.849 37.48 145.849 37V33.82ZM159.423 6.16H167.943V49H159.423V6.16ZM193.731 30.16C193.331 28 192.611 26.36 191.571 25.24C190.571 24.12 189.031 23.56 186.951 23.56C185.591 23.56 184.451 23.8 183.531 24.28C182.651 24.72 181.931 25.28 181.371 25.96C180.851 26.64 180.471 27.36 180.231 28.12C180.031 28.88 179.911 29.56 179.871 30.16H193.731ZM179.871 35.56C179.991 38.28 180.691 40.28 181.971 41.56C183.251 42.8 185.091 43.42 187.491 43.42C189.211 43.42 190.691 43 191.931 42.16C193.171 41.28 193.931 40.36 194.211 39.4H201.711C200.511 43.08 198.671 45.74 196.191 47.38C193.711 49.02 190.711 49.84 187.191 49.84C184.751 49.84 182.551 49.44 180.591 48.64C178.631 47.84 176.971 46.72 175.611 45.28C174.251 43.84 173.191 42.12 172.431 40.12C171.711 38.12 171.351 35.92 171.351 33.52C171.351 31.2 171.731 29.04 172.491 27.04C173.251 25.04 174.331 23.32 175.731 21.88C177.131 20.4 178.791 19.24 180.711 18.4C182.671 17.56 184.831 17.14 187.191 17.14C189.831 17.14 192.131 17.66 194.091 18.7C196.051 19.7 197.651 21.06 198.891 22.78C200.171 24.5 201.091 26.46 201.651 28.66C202.211 30.86 202.411 33.16 202.251 35.56H179.871ZM205.864 39.76H215.284V49H205.864V39.76Z" fill="white"/>
</svg> -->
<?xml version="1.0" standalone="no"?>
<!DOCTYPE svg PUBLIC "-//W3C//DTD SVG 20010904//EN"
 "http://www.w3.org/TR/2001/REC-SVG-20010904/DTD/svg10.dtd">
<svg version="1.0" xmlns="http://www.w3.org/2000/svg"
 width="120px" height="40px" viewBox="0 0 1247.000000 498.000000"
 preserveAspectRatio="xMidYMid meet">

<g transform="translate(0.000000,498.000000) scale(0.100000,-0.100000)"
fill="#f9f9f9" stroke="none">
<path d="M7927 4263 c-4 -3 -7 -606 -7 -1340 l0 -1333 273 2 272 3 5 313 5
312 315 -315 315 -315 537 0 538 0 0 800 0 800 -577 0 -578 0 -277 -277 -278
-278 0 811 c0 731 -2 812 -16 818 -21 8 -519 8 -527 -1z m1703 -1840 l0 -648
-324 324 -325 325 317 322 c174 178 320 323 325 323 4 1 7 -290 7 -646z"/>
<path d="M9807 4155 c-88 -33 -174 -120 -202 -206 -23 -69 -17 -178 13 -241
31 -62 89 -121 154 -155 46 -24 65 -28 138 -28 73 0 93 4 142 28 65 32 131
100 161 167 30 63 29 187 0 252 -31 68 -99 137 -168 169 -49 24 -73 29 -130
28 -38 0 -87 -7 -108 -14z"/>
<path d="M2018 3220 c-410 -74 -685 -475 -638 -930 44 -430 368 -740 772 -740
197 0 344 54 488 178 l49 42 3 -87 3 -88 270 0 270 0 5 630 5 630 71 -130 c38
-71 191 -356 339 -632 l269 -503 182 0 c133 0 184 3 191 13 5 6 88 189 184
404 96 216 178 392 182 390 4 -1 88 -182 186 -402 l179 -400 187 0 187 0 424
790 c233 435 424 793 424 798 0 4 -141 7 -314 7 l-313 0 -189 -419 c-104 -230
-193 -420 -199 -422 -5 -2 -93 185 -196 416 l-187 420 -189 3 -190 2 -188
-425 c-104 -234 -191 -425 -194 -425 -4 0 -92 190 -197 423 l-190 422 -507 3
-507 2 0 -70 c0 -41 -4 -70 -10 -70 -6 0 -33 18 -61 40 -60 47 -153 93 -235
116 -68 18 -294 27 -366 14z m427 -475 c65 -19 145 -76 184 -130 50 -69 64
-118 65 -225 0 -87 -2 -101 -31 -162 -37 -79 -105 -151 -171 -181 -39 -18 -65
-22 -157 -22 -136 0 -188 17 -264 89 -86 82 -116 164 -109 298 8 163 93 278
241 329 64 22 176 24 242 4z"/>
<path d="M6618 3220 c-158 -27 -329 -123 -430 -242 -148 -176 -210 -345 -212
-578 -2 -201 39 -348 136 -497 161 -246 394 -365 688 -350 176 9 291 54 424
163 l65 54 3 -88 3 -87 270 0 270 0 0 795 0 795 -240 0 -240 0 -32 -50 c-18
-27 -33 -57 -33 -67 0 -9 -6 -21 -14 -25 -11 -7 -196 -307 -196 -319 0 -2 47
-4 105 -4 58 0 105 -2 105 -5 0 -10 -642 -926 -646 -922 -2 2 59 161 136 352
77 192 140 351 140 353 0 3 -52 3 -115 0 -63 -3 -115 -1 -115 3 0 5 65 162
145 349 80 186 145 343 145 349 0 25 -249 40 -362 21z"/>
<path d="M10561 2249 c-99 -17 -202 -96 -251 -194 -22 -43 -25 -63 -25 -150 0
-91 3 -105 29 -158 40 -77 116 -148 191 -176 83 -32 207 -26 280 11 262 135
265 505 5 638 -33 17 -139 42 -164 39 -6 -1 -36 -5 -65 -10z"/>
<path d="M3734 941 c-47 -29 -64 -59 -64 -114 0 -44 4 -54 39 -88 36 -36 43
-39 94 -39 39 0 61 5 78 19 35 29 14 47 -30 25 -67 -33 -141 10 -141 83 0 45
14 69 50 88 36 19 57 19 94 0 28 -15 46 -13 46 5 0 16 -58 40 -97 40 -21 0
-52 -9 -69 -19z"/>
<path d="M4100 831 c0 -124 1 -131 20 -131 17 0 20 7 20 40 0 40 0 40 39 40
33 0 42 -5 66 -40 16 -22 36 -40 46 -40 25 0 24 5 -7 46 l-27 34 27 26 c34 35
35 83 2 121 -22 25 -31 28 -105 31 l-81 4 0 -131z m156 78 c8 -6 14 -24 14
-40 0 -37 -33 -59 -87 -59 l-43 0 0 53 c0 30 3 57 8 61 10 11 92 -1 108 -15z"/>
<path d="M4520 830 l0 -131 90 3 c50 2 91 8 93 13 1 6 -30 12 -73 15 l-75 5
-3 37 -3 37 63 3 c50 2 63 7 66 20 3 14 -7 17 -60 20 l-63 3 0 35 0 35 73 3
c55 2 72 6 72 17 0 12 -18 15 -90 15 l-90 0 0 -130z"/>
<path d="M4938 853 c-72 -154 -71 -153 -47 -153 13 0 24 10 30 30 11 30 12 30
84 30 72 0 73 0 84 -30 7 -20 17 -30 30 -30 12 0 21 2 21 3 0 6 -104 230 -113
245 -20 30 -40 8 -89 -95z m92 11 c11 -26 20 -50 20 -55 0 -5 -20 -9 -45 -9
-25 0 -45 4 -45 9 0 11 40 101 45 101 2 0 13 -21 25 -46z"/>
<path d="M5290 945 c0 -11 11 -15 40 -15 l39 0 3 -112 c3 -97 5 -113 20 -116
15 -3 18 9 20 110 l3 113 43 3 c28 2 42 8 42 18 0 11 -20 14 -105 14 -87 0
-105 -3 -105 -15z"/>
<path d="M5690 830 c0 -109 2 -130 15 -130 13 0 15 21 15 130 0 109 -2 130
-15 130 -13 0 -15 -21 -15 -130z"/>
<path d="M5910 956 c0 -3 24 -60 54 -128 72 -166 78 -166 151 1 30 68 55 126
55 128 0 1 -8 3 -18 3 -14 0 -30 -25 -62 -100 -24 -55 -46 -100 -49 -100 -4 0
-26 45 -50 100 -33 76 -48 100 -62 100 -11 0 -19 -2 -19 -4z"/>
<path d="M6357 953 c-4 -3 -7 -62 -7 -130 l0 -123 95 0 c77 0 95 3 95 15 0 11
-17 15 -72 17 l-73 3 -3 37 -3 37 63 3 c50 2 63 6 66 21 3 15 -5 17 -63 17
l-66 0 3 38 3 37 73 3 c55 2 72 6 72 17 0 12 -18 15 -88 15 -49 0 -92 -3 -95
-7z"/>
<path d="M6990 831 c0 -123 1 -131 20 -131 17 0 19 8 22 87 l3 88 43 -73 c24
-39 47 -72 51 -72 5 0 28 33 52 73 l44 72 3 -87 c3 -80 5 -88 23 -88 19 0 19
6 17 127 -4 162 -13 168 -82 48 -27 -47 -53 -84 -57 -83 -5 2 -31 39 -57 83
-27 44 -56 81 -65 83 -15 3 -17 -10 -17 -127z"/>
<path d="M7490 830 l0 -130 95 0 c77 0 95 3 95 15 0 11 -17 15 -72 17 l-73 3
-3 37 -3 37 63 3 c48 2 63 7 63 18 0 11 -15 16 -63 18 l-63 3 3 37 3 37 68 3
c51 2 67 6 67 17 0 12 -18 15 -90 15 l-90 0 0 -130z"/>
<path d="M7887 953 c-4 -3 -7 -62 -7 -130 l0 -123 75 0 c119 0 175 41 175 130
0 56 -26 95 -76 116 -34 14 -155 19 -167 7z m135 -33 c46 -13 68 -43 68 -93 0
-63 -64 -106 -141 -95 -23 3 -24 7 -27 87 -2 46 -1 90 2 98 6 16 47 17 98 3z"/>
<path d="M8337 953 c-4 -3 -7 -62 -7 -130 0 -116 1 -123 20 -123 19 0 20 7 20
130 0 102 -3 130 -13 130 -8 0 -17 -3 -20 -7z"/>
<path d="M8661 938 c-5 -13 -27 -62 -49 -109 -55 -118 -58 -129 -35 -129 11 0
23 12 30 30 11 29 12 30 83 30 71 0 72 -1 83 -30 10 -27 47 -44 47 -22 0 5
-25 62 -55 128 -41 89 -60 120 -75 122 -13 2 -23 -4 -29 -20z m54 -75 c11 -26
22 -51 23 -55 2 -4 -20 -8 -48 -8 -28 0 -50 4 -48 8 2 4 12 29 23 55 11 26 22
47 25 47 3 0 14 -21 25 -47z"/>
</g>
</svg>
